<?xml version="1.0" encoding="UTF-8" standalone="no"?>
<!-- Created with Inkscape (http://www.inkscape.org/) -->

<svg
   width="35.942177mm"
   height="30.412289mm"
   viewBox="0 0 35.942177 30.412289"
   version="1.1"
   id="svg5"
   xml:space="preserve"
   inkscape:version="1.2 (1:1.2+202205241504+da316b6974)"
   sodipodi:docname="project_logo.svg"
   inkscape:export-filename="project_logo.png"
   inkscape:export-xdpi="600"
   inkscape:export-ydpi="600"
   xmlns:inkscape="http://www.inkscape.org/namespaces/inkscape"
   xmlns:sodipodi="http://sodipodi.sourceforge.net/DTD/sodipodi-0.dtd"
   xmlns="http://www.w3.org/2000/svg"
   xmlns:svg="http://www.w3.org/2000/svg"><sodipodi:namedview
     id="namedview7"
     pagecolor="#505050"
     bordercolor="#eeeeee"
     borderopacity="1"
     inkscape:showpageshadow="0"
     inkscape:pageopacity="0"
     inkscape:pagecheckerboard="0"
     inkscape:deskcolor="#505050"
     inkscape:document-units="mm"
     showgrid="false"
     inkscape:zoom="1.6819304"
     inkscape:cx="57.37455"
     inkscape:cy="76.10303"
     inkscape:window-width="1350"
     inkscape:window-height="1381"
     inkscape:window-x="1034"
     inkscape:window-y="27"
     inkscape:window-maximized="0"
     inkscape:current-layer="g239" /><defs
     id="defs2"><style
       id="style386">.cls-1{fill:#fff;}.cls-16,.cls-2,.cls-3,.cls-4{fill:none;stroke:#000;stroke-miterlimit:10;}.cls-2,.cls-4{stroke-width:0.5px;}.cls-15,.cls-2{opacity:0.1;}.cls-4{stroke-dasharray:1;opacity:0.3;}.cls-5{fill:#ff0051;}.cls-6{fill:#008bfb;}.cls-7{fill:#8f37bb;}.cls-8{fill:#007bf4;}.cls-9{fill:#6f52d4;}.cls-10{fill:#cd0095;}.cls-11{fill:#f70069;}.cls-12{fill:#3769e8;}.cls-13{fill:#e60080;}.cls-14{fill:#ae13a6;}.cls-16{stroke-width:17px;}.cls-17{opacity:0.4;}</style></defs><g
     inkscape:label="Layer 1"
     inkscape:groupmode="layer"
     id="layer1"
     transform="translate(-87.68636,-59.13465)"><g
       id="g239"
       transform="matrix(0.0414773,0,0,0.0414773,100.48472,72.361016)"><g
         id="g184">
	<g
   id="g182">
		<path
   d="m 12.822,355.574 c 9.103,-1.444 17.973,-3.627 26.622,-6.435 10.257,-1.244 20.519,-2.468 30.808,-3.26 4.529,-0.347 10.094,0.579 13.746,3.048 21.024,14.235 44.292,23.269 69.103,26.034 21.432,2.391 34.958,14.044 47.495,30.809 0.069,-0.062 0.147,-0.131 0.216,-0.192 0.449,1.767 0.894,3.529 1.342,5.296 0.645,2.55 4.582,1.469 3.933,-1.085 -0.612,-2.424 -1.228,-4.847 -1.844,-7.274 1.293,-1.15 2.668,-2.379 4.182,-3.729 1.412,1.281 2.897,2.623 4.549,4.125 0.844,3.325 1.685,6.654 2.525,9.979 0.645,2.55 4.582,1.469 3.933,-1.085 -0.6,-2.371 -1.2,-4.741 -1.803,-7.115 1.016,-2.521 1.799,-4.962 3.419,-6.5 1.358,-1.289 3.644,-1.652 6.683,-2.395 1.754,1.154 3.15,2.778 4.117,5.096 0.09,0.2 0.179,0.404 0.269,0.604 0.237,0.53 0.645,0.824 1.11,0.942 0.388,1.024 0.775,2.053 1.163,3.077 0.922,2.436 4.867,1.379 3.933,-1.086 -4.337,-11.473 -8.678,-22.945 -13.016,-34.419 16.031,-3.753 32.102,-7.649 48.258,-11.163 4.904,-1.064 10.51,0.172 15.023,-1.603 16.291,-6.406 28.008,2.868 39.453,11.306 10.693,7.882 20.105,17.495 30.236,26.16 1.848,1.583 4.342,2.836 6.717,3.285 2.961,0.562 5.961,0.946 8.951,1.452 3.178,1.457 5.908,3.79 7.771,6.838 1.367,2.24 4.9,0.192 3.525,-2.061 -0.938,-1.534 -2.031,-2.9 -3.248,-4.116 1.131,-2.162 0.857,-7.516 3.758,-5.729 1.033,2.272 2.064,4.541 3.098,6.813 1.084,2.391 4.602,0.318 3.521,-2.061 -0.662,-1.452 -1.318,-2.9 -1.98,-4.353 0.09,-1.832 0.086,-3.521 0.029,-5.129 l 3.994,4.684 c 1.709,2.003 4.582,-0.894 2.885,-2.885 -2.645,-3.101 -5.291,-6.205 -7.936,-9.307 -2.408,-8.771 -9.014,-13.479 -22.072,-17.943 24.459,-31.22 60.029,-40.522 96.785,-47.373 0.199,1.53 0.4,3.064 0.656,5.015 5.975,-5.867 11.768,-11.562 17.398,-17.096 1.582,2.595 3.256,5.333 5.156,8.454 8.553,-10.763 13.811,-13.26 18.695,-7.119 l 2.121,28.706 c 0.191,2.607 4.275,2.628 4.08,0 -0.828,-11.183 -1.652,-22.37 -2.48,-33.554 0.195,-2.994 0.4,-6.156 0.648,-9.931 3.297,16.406 6.598,32.808 9.895,49.213 0.518,2.579 4.451,1.485 3.932,-1.085 -3.174,-15.794 -6.348,-31.583 -9.525,-47.377 2.84,1.922 5.451,3.692 7.928,5.373 3.406,5.39 6.01,11.27 7.727,17.622 0.686,2.537 4.623,1.46 3.934,-1.086 -1.926,-7.115 -4.934,-13.721 -8.883,-19.734 -2.158,-5.296 -4.41,-10.82 -6.666,-16.361 0.02,-0.016 0.041,-0.028 0.064,-0.044 4.961,8.828 9.924,17.657 14.885,26.486 1.289,2.293 4.814,0.237 3.525,-2.061 L 524.206,279.19 c 0.779,0.709 1.57,1.432 2.436,2.219 5.064,6.691 10.123,13.382 15.186,20.073 1.566,2.068 5.113,0.041 3.525,-2.061 -5.871,-7.76 -11.742,-15.524 -17.617,-23.284 -0.893,-2.154 -1.637,-4.198 -2.109,-6.189 7.082,8.69 14.166,17.376 21.252,26.067 1.666,2.04 4.533,-0.865 2.885,-2.885 -8.082,-9.914 -16.164,-19.824 -24.246,-29.739 0.125,-0.567 0.334,-1.134 0.525,-1.701 5.533,6.377 11.064,12.754 16.594,19.134 1.727,1.991 4.598,-0.905 2.885,-2.884 -5.803,-6.687 -11.604,-13.374 -17.402,-20.061 l 28.859,-15.92 c 2.305,-1.269 0.248,-4.794 -2.061,-3.521 -7.014,3.868 -14.023,7.736 -21.033,11.604 3.822,-3.076 7.646,-6.153 11.469,-9.225 2.053,-1.648 -0.857,-4.516 -2.885,-2.884 -5.092,4.096 -10.188,8.197 -15.279,12.293 -2.871,-3.427 -4.484,-6.74 -5.32,-9.984 6.785,-8.372 13.57,-16.74 20.359,-25.112 1.641,-2.023 -1.229,-4.929 -2.885,-2.884 l -14.969,18.462 c 2.908,-6.757 5.818,-13.517 8.727,-20.273 1.027,-2.391 -2.484,-4.472 -3.525,-2.061 -2.215,5.145 -4.43,10.294 -6.646,15.438 1.641,-5.581 3.865,-11.11 4.5,-16.785 0.502,-1.774 1.004,-3.545 1.51,-5.32 0.719,-2.538 -3.219,-3.611 -3.932,-1.085 -2.629,9.262 -5.252,18.523 -7.875,27.781 -0.012,0.032 -0.029,0.069 -0.041,0.102 -0.754,-0.147 -1.514,-0.29 -2.268,-0.437 0.076,-2.187 0.158,-4.374 0.236,-6.565 l 4.52,-17.536 c 0.658,-2.55 -3.275,-3.631 -3.934,-1.085 -0.822,3.203 -1.652,6.406 -2.477,9.604 -0.93,2.44 -1.904,4.998 -3.246,8.527 -0.547,-8.637 -1.094,-17.274 -1.641,-25.912 -0.168,-2.611 -4.248,-2.627 -4.08,0 l 0.885,13.938 c -2.533,0.681 -5.496,2.285 -7.074,1.403 -19.434,-10.84 -38.4,-22.525 -57.943,-33.15 -33.535,-18.229 -69.074,-18.434 -104.424,-7.536 -14.688,4.529 -26.471,2.371 -39.332,-3.99 -32.75,-16.198 -67.491,-23.807 -104.105,-21.812 -43.297,2.362 -80.029,19.388 -110.625,49.979 -2.236,2.236 -4.888,4.06 -7.348,6.075 -5.688,8.397 -11.379,16.79 -17.066,25.186 -5.361,30.922 -13.395,61.849 1.444,93.721 -0.901,0.478 -1.803,0.959 -2.713,1.416 -9.657,3.354 -18.683,6.418 -27.593,9.682 -3.043,1.114 -6.059,2.313 -9.074,3.518 -3.9,0.897 -7.842,1.701 -11.853,2.338 -12.944,2.091 -7.424,21.749 5.44,19.705 z"
   id="path180" />
	</g>
</g><g
         id="g186">
</g><g
         id="g188">
</g><g
         id="g190">
</g><g
         id="g192">
</g><g
         id="g194">
</g><g
         id="g196">
</g><g
         id="g198">
</g><g
         id="g200">
</g><g
         id="g202">
</g><g
         id="g204">
</g><g
         id="g206">
</g><g
         id="g208">
</g><g
         id="g210">
</g><g
         id="g212">
</g><g
         id="g214">
</g><g
         id="g74"
         transform="matrix(6.3789912,0,0,6.3789912,-42.046782,12.571206)"><g
           id="g17">
	<path
   style="fill:#88c057"
   d="M 48.971,30.738 H 48.77 C 47.528,22.947 40.648,16.986 32.346,16.986 c -8.302,0 -15.181,5.961 -16.424,13.752 h -0.201 c -1.306,0 -2.375,1.303 -2.375,2.895 0,1.592 1.069,2.895 2.375,2.895 h 0.333 c 1.54,7.433 8.249,13.029 16.292,13.029 8.043,0 14.751,-5.595 16.292,-13.029 h 0.333 c 1.306,0 2.375,-1.303 2.375,-2.895 0,-1.592 -1.069,-2.895 -2.375,-2.895 z"
   id="path9" />
	<path
   style="fill:#659c35"
   d="m 13.346,33.633 c 0,-1.592 1.069,-2.895 2.375,-2.895 h 0.201 c 1.242,-7.791 8.122,-13.752 16.424,-13.752 0.31,0 0.613,0.025 0.918,0.041 C 32.813,12.036 30.088,7.269 25.453,4.368 18.415,-0.036 9.421,1.368 4.235,7.314 L 4.065,7.207 C 2.958,6.514 1.361,7.051 0.516,8.401 c -0.845,1.35 -0.63,3.021 0.478,3.714 l 0.282,0.177 c -2.637,7.119 0.081,15.42 6.9,19.687 1.654,1.035 3.417,1.743 5.212,2.153 -0.024,-0.163 -0.042,-0.329 -0.042,-0.499 z"
   id="path11" />
	<path
   style="fill:#a4e869"
   d="m 42.346,30.057 c -0.553,0 -1,-0.448 -1,-1 0,-2.481 -2.019,-4.5 -4.5,-4.5 -0.553,0 -1,-0.448 -1,-1 0,-0.552 0.447,-1 1,-1 3.584,0 6.5,2.916 6.5,6.5 0,0.552 -0.447,1 -1,1 z"
   id="path13" />
	<path
   style="fill:#a4e869"
   d="M 10.644,8.557 C 10.45,8.557 10.254,8.501 10.081,8.383 9.625,8.072 9.507,7.45 9.819,6.993 c 2.189,-3.211 6.689,-3.97 10.032,-1.691 0.456,0.311 0.574,0.933 0.263,1.39 -0.312,0.456 -0.933,0.574 -1.39,0.263 C 16.292,5.296 13.04,5.821 11.471,8.121 11.278,8.404 10.963,8.557 10.644,8.557 Z"
   id="path15" />
</g><g
           id="g19">
</g><g
           id="g21">
</g><g
           id="g23">
</g><g
           id="g25">
</g><g
           id="g27">
</g><g
           id="g29">
</g><g
           id="g31">
</g><g
           id="g33">
</g><g
           id="g35">
</g><g
           id="g37">
</g><g
           id="g39">
</g><g
           id="g41">
</g><g
           id="g43">
</g><g
           id="g45">
</g><g
           id="g47">
</g></g><g
         id="g384"
         transform="matrix(0.94496627,0,0,0.94496627,-308.56346,-318.88227)"><g
           id="g320">
	<g
   id="g318">
		<path
   d="M 249.469,187.871 5.141,432.2 c -6.854,6.854 -6.854,17.966 0,24.82 l 49.839,49.84 c 6.854,6.854 17.966,6.854 24.82,0 L 324.129,262.531 Z"
   id="path316" />
	</g>
</g><g
           id="g326">
	<g
   id="g324">
		<path
   d="m 505.421,174.167 -46.463,-46.463 17.772,-17.772 c 6.854,-6.854 6.854,-17.966 0,-24.82 L 426.889,35.273 c -6.854,-6.854 -17.966,-6.854 -24.82,0 L 384.298,53.045 337.834,6.58 c -8.774,-8.773 -22.997,-8.773 -31.77,0 l -79.426,79.426 c -8.773,8.773 -8.773,22.997 0,31.77 l 167.588,167.588 c 8.774,8.774 22.997,8.774 31.77,0 l 79.426,-79.426 c 8.772,-8.774 8.772,-22.998 -0.001,-31.771 z"
   id="path322" />
	</g>
</g><g
           id="g328">
</g><g
           id="g330">
</g><g
           id="g332">
</g><g
           id="g334">
</g><g
           id="g336">
</g><g
           id="g338">
</g><g
           id="g340">
</g><g
           id="g342">
</g><g
           id="g344">
</g><g
           id="g346">
</g><g
           id="g348">
</g><g
           id="g350">
</g><g
           id="g352">
</g><g
           id="g354">
</g><g
           id="g356">
</g></g><g
         id="g931"
         transform="matrix(6.3789912,0,0,6.3789912,-1751.8036,-906.77541)"><path
           class="cls-5"
           d="m 332.51144,150.55062 v 0 a 2.2183754,2.2183754 0 0 1 2.21838,2.22293 v 4.52786 a 2.2229306,2.2229306 0 0 1 -2.21838,2.22293 v 0 a 2.2229306,2.2229306 0 0 1 -2.21837,-2.22293 v -4.52786 a 2.2183754,2.2183754 0 0 1 2.21837,-2.22293 z"
           id="path646"
           style="stroke-width:0.455519" /><path
           class="cls-7"
           d="m 330.29307,163.42358 a 2.2183754,2.2183754 0 0 1 2.21837,-2.21838 v 0 a 2.2183754,2.2183754 0 0 1 2.21838,2.21838 v 10.70013 a 2.2229306,2.2229306 0 0 1 -2.21838,2.22293 v 0 a 2.2229306,2.2229306 0 0 1 -2.21837,-2.22293 z"
           id="path648"
           style="stroke-width:0.455519" /><path
           class="cls-8"
           d="m 313.26578,166.25235 v 0 a 2.2229306,2.2229306 0 0 1 2.22293,2.21837 v 9.56589 a 2.2229306,2.2229306 0 0 1 -2.22293,2.21838 v 0 a 2.2183754,2.2183754 0 0 1 -2.21837,-2.21838 v -9.56589 a 2.2183754,2.2183754 0 0 1 2.21837,-2.21837 z"
           id="path650"
           style="stroke-width:0.455519" /><path
           class="cls-9"
           d="m 326.09774,156.73201 v 0 a 2.2183754,2.2183754 0 0 1 2.21837,2.22293 v 17.41447 a 2.2183754,2.2183754 0 0 1 -2.21837,2.22749 v 0 a 2.2229306,2.2229306 0 0 1 -2.22293,-2.21838 v -17.43725 a 2.2229306,2.2229306 0 0 1 2.22293,-2.20926 z"
           id="path652"
           style="stroke-width:0.455519" /><path
           class="cls-10"
           d="m 313.26578,145.50348 v 0 a 2.2229306,2.2229306 0 0 1 2.22293,2.22293 v 14.62214 a 2.2274858,2.2274858 0 0 1 -2.22293,2.22293 v 0 a 2.2229306,2.2229306 0 0 1 -2.21837,-2.22293 v -14.62214 a 2.2183754,2.2183754 0 0 1 2.21837,-2.22293 z"
           id="path654"
           style="stroke-width:0.455519" /><path
           class="cls-11"
           d="m 326.09774,146.06376 v 0 a 2.2229306,2.2229306 0 0 1 2.21837,2.22293 v 4.52786 a 2.2183754,2.2183754 0 0 1 -2.21837,2.22293 v 0 a 2.2229306,2.2229306 0 0 1 -2.22293,-2.22293 v -4.52786 a 2.2274858,2.2274858 0 0 1 2.22293,-2.22293 z"
           id="path656"
           style="stroke-width:0.455519" /><path
           class="cls-12"
           d="m 319.68404,162.32578 v 0 a 2.2183754,2.2183754 0 0 1 2.21837,2.22293 v 15.74272 a 2.2229306,2.2229306 0 0 1 -2.21837,2.22293 v 0 a 2.2229306,2.2229306 0 0 1 -2.22293,-2.22293 v -15.74272 a 2.2183754,2.2183754 0 0 1 2.22293,-2.22293 z"
           id="path658"
           style="stroke-width:0.455519" /><path
           class="cls-13"
           d="m 319.68404,144.3829 v 0 a 2.2183754,2.2183754 0 0 1 2.21837,2.21838 v 11.84348 a 2.2183754,2.2183754 0 0 1 -2.21837,2.22293 v 0 a 2.2183754,2.2183754 0 0 1 -2.22293,-2.22293 v -11.84348 a 2.2183754,2.2183754 0 0 1 2.22293,-2.21838 z"
           id="path660"
           style="stroke-width:0.455519" /><path
           class="cls-6"
           d="m 306.85208,176.34664 v 0 a 2.2229306,2.2229306 0 0 1 -2.21838,-2.22293 v -4.52786 a 2.2183754,2.2183754 0 0 1 2.21838,-2.22293 v 0 a 2.2183754,2.2183754 0 0 1 2.21838,2.22293 v 4.52786 a 2.2229306,2.2229306 0 0 1 -2.21838,2.22293 z"
           id="path662"
           style="stroke-width:0.455519" /><path
           class="cls-14"
           d="m 309.07046,163.46913 a 2.2229306,2.2229306 0 0 1 -2.21838,2.22293 v 0 a 2.2229306,2.2229306 0 0 1 -2.21838,-2.22293 v -10.69558 a 2.2183754,2.2183754 0 0 1 2.21838,-2.22293 v 0 a 2.2183754,2.2183754 0 0 1 2.21838,2.22293 z"
           id="path664"
           style="stroke-width:0.455519" /></g></g></g></svg>
